<?xml version="1.0" encoding="UTF-8" standalone="no"?>
<!DOCTYPE svg PUBLIC "-//W3C//DTD SVG 1.1//EN" "http://www.w3.org/Graphics/SVG/1.1/DTD/svg11.dtd">
<svg xml:space="default" width="700" height="400" xmlns="http://www.w3.org/2000/svg">
	<metadata>
	<![CDATA[
		<rdf:RDF 
		  xmlns:rdf="http://www.w3.org/1999/02/22-rdf-syntax-ns#"
		  xmlns:dc="http://purl.org/dc/elements/1.1/">
		  <rdf:Description 
		    dc:language="ja"
		    dc:format="image/svg+xml"
		    dc:creator="Monaneko"
		    dc:date="2020-04-05" />
		</rdf:RDF>
	]]>
	</metadata>
	<rect x="0" y="0" width="700" height="400" fill="white" />
	<g>
		<path fill="none" stroke-width="2px" stroke="black" d="M 100 20 V 340 H 680" />
	</g>
	<g transform="translate(27,170)">
		<text x="0" y="0" font-size="16pt" text-anchor="middle"	font-family="sans-serif" fill="black" transform="rotate(270)"></text>
	</g>
	<g fill="black" stroke-width="1px" stroke="black">
		<path d="M 100 340.0 h 10" />
		<path d="M 100 302.7906976744186 h 10" />
		<path d="M 100 265.5813953488372 h 10" />
		<path d="M 100 228.37209302325581 h 10" />
		<path d="M 100 191.1627906976744 h 10" />
		<path d="M 100 153.953488372093 h 10" />
		<path d="M 100 116.74418604651163 h 10" />
		<path d="M 100 79.53488372093022 h 10" />
		<path d="M 100 42.32558139534882 h 10" />
	</g>
	<g fill="black" stroke-width="1px" stroke="black">
		<path d="M 100.0 340 v -10" />
		<path d="M 151.8628912071535 340 v -10" />
		<path d="M 203.725782414307 340 v -10" />
		<path d="M 255.58867362146052 340 v -10" />
		<path d="M 307.451564828614 340 v -10" />
		<path d="M 359.31445603576753 340 v -10" />
		<path d="M 411.17734724292103 340 v -10" />
		<path d="M 463.0402384500745 340 v -10" />
		<path d="M 514.903129657228 340 v -10" />
		<path d="M 566.7660208643815 340 v -10" />
		<path d="M 618.6289120715351 340 v -10" />
		<path d="M 670.4918032786885 340 v -10" />
	</g>
	<g fill="black" font-family="sans-serif" font-size="16pt" text-anchor="end" transform="translate(0,5)">
		<text x="90" y="340.0">0</text>
		<text x="90" y="302.7906976744186">5,000</text>
		<text x="90" y="265.5813953488372">10,000</text>
		<text x="90" y="228.37209302325581">15,000</text>
		<text x="90" y="191.1627906976744">20,000</text>
		<text x="90" y="153.953488372093">25,000</text>
		<text x="90" y="116.74418604651163">30,000</text>
		<text x="90" y="79.53488372093022">35,000</text>
		<text x="90" y="42.32558139534882">40,000</text>
	</g>
	<g fill="black" font-family="sans-serif" font-size="16pt" text-anchor="middle">
		<text x="100.0" y="375">'70</text>
		<text x="151.8628912071535" y="375">'75</text>
		<text x="203.725782414307" y="375">'80</text>
		<text x="255.58867362146052" y="375">'85</text>
		<text x="307.451564828614" y="375">'90</text>
		<text x="359.31445603576753" y="375">'95</text>
		<text x="411.17734724292103" y="375">'00</text>
		<text x="463.0402384500745" y="375">'05</text>
		<text x="514.903129657228" y="375">'10</text>
		<text x="566.7660208643815" y="375">'15</text>
		<text x="618.6289120715351" y="375">'20</text>
		<text x="670.4918032786885" y="375">'25</text>
	</g>
	<g fill="none" stroke-width="2px" stroke="red">
		<path d=" M100.0 322.75735813953486 L100.86438152011922 322.32967441860467 L101.72876304023845 321.21860465116276 L102.59314456035767 324.26552558139537 L103.4575260804769 324.5770418604651 L104.32190760059612 324.08848372093024 L105.18628912071534 323.93183255813955 L106.05067064083458 324.1323906976744 L106.9150521609538 324.62928372093023 L107.77943368107303 324.2648558139535 L108.64381520119225 325.1872 L109.50819672131148 325.21198139534886 L110.3725782414307 324.3767813953488 L111.23695976154993 323.2829023255814 L112.10134128166915 322.11497674418604 L112.96572280178837 321.6321488372093 L113.8301043219076 321.7203348837209 L114.69448584202682 320.37320930232556 L115.55886736214605 320.24037209302327 L116.42324888226528 322.9056 L117.28763040238451 321.9293023255814 L118.15201192250373 323.06351627906974 L119.01639344262296 321.8216930232558 L119.88077496274218 319.80472558139536 L120.7451564828614 318.74232558139533 L121.60953800298063 317.5108465116279 L122.47391952309985 316.27817674418606 L123.33830104321908 315.15103255813955 L124.2026825633383 312.93551627906976 L125.06706408345752 312.38548837209305 L125.93144560357675 310.69097674418606 L126.79582712369597 309.7355906976744 L127.6602086438152 307.6059534883721 L128.52459016393442 306.228911627907 L129.38897168405364 303.76587906976744 L130.25335320417287 301.2432372093023 L131.1177347242921 301.56100465116276 L131.98211624441132 301.8878511627907 L132.84649776453057 301.108688372093 L133.71087928464976 305.77882790697674 L134.57526080476902 306.0847627906977 L135.4396423248882 305.20773953488373 L136.30402384500746 302.4842418604651 L137.1684053651267 303.6681674418605 L138.0327868852459 305.71400930232556 L138.89716840536514 305.02526511627906 L139.76154992548436 306.7956093023256 L140.62593144560358 307.9493953488372 L141.4903129657228 306.8844651162791 L142.35469448584203 306.6114976744186 L143.21907600596126 306.70824186046514 L144.08345752608048 305.60111627906974 L144.9478390461997 304.48253023255813 L145.81222056631893 305.66161860465115 L146.67660208643815 306.5680372093023 L147.54098360655738 308.98120930232557 L148.4053651266766 310.6046511627907 L149.26974664679582 313.2498604651163 L150.13412816691505 310.57332093023257 L150.99850968703427 311.5927813953488 L151.8628912071535 310.54861395348837 L152.72727272727272 308.19802790697673 L153.59165424739194 306.6234790697674 L154.45603576751117 306.6244465116279 L155.3204172876304 307.23706046511626 L156.18479880774964 306.2694697674419 L157.04918032786884 307.75412093023255 L157.9135618479881 309.5629395348837 L158.7779433681073 311.07802790697673 L159.64232488822654 307.6126511627907 L160.50670640834574 307.76826046511627 L161.371087928465 307.5639069767442 L162.2354694485842 305.1404651162791 L163.09985096870344 305.5841488372093 L163.96423248882266 305.79363720930235 L164.82861400894188 305.3435534883721 L165.6929955290611 305.3249488372093 L166.55737704918033 303.89112558139533 L167.42175856929956 305.3523348837209 L168.28614008941878 304.73942325581396 L169.150521609538 304.0528372093023 L170.01490312965723 305.33127441860466 L170.87928464977645 306.46251162790696 L171.74366616989568 302.8587906976744 L172.60804769001493 303.0699906976744 L173.47242921013412 302.20197209302324 L174.33681073025338 302.5193674418605 L175.20119225037257 302.02872558139535 L176.06557377049182 302.5961674418605 L176.92995529061102 302.96982325581394 L177.79433681073027 303.35843720930234 L178.65871833084947 300.9789023255814 L179.52309985096872 300.8232186046512 L180.38748137108792 302.1982511627907 L181.25186289120717 303.26035348837206 L182.11624441132636 303.79088372093025 L182.98062593144562 301.9596651162791 L183.8450074515648 301.13369302325583 L184.70938897168406 299.45853023255813 L185.57377049180326 298.8154046511628 L186.4381520119225 299.29473488372093 L187.3025335320417 298.7487255813953 L188.16691505216096 298.3156093023256 L189.03129657228016 298.4341581395349 L189.8956780923994 296.96253023255815 L190.76005961251863 296.07121860465116 L191.62444113263786 295.59121860465115 L192.48882265275708 295.33506976744184 L193.3532041728763 293.7653581395349 L194.21758569299553 294.80647441860464 L195.08196721311475 294.29722790697673 L195.94634873323398 293.7357395348837 L196.8107302533532 293.4690976744186 L197.67511177347245 293.3163162790698 L198.53949329359165 293.0138046511628 L199.4038748137109 292.10321860465115 L200.2682563338301 290.9530046511628 L201.13263785394935 292.04368372093023 L201.99701937406854 291.9985860465116 L202.8614008941878 291.11092093023257 L203.725782414307 289.6322976744186 L204.59016393442624 289.65663255813956 L205.45454545454544 291.2097488372093 L206.3189269746647 288.9074604651163 L207.1833084947839 288.90671627906977 L208.04769001490314 288.8692093023256 L208.91207153502233 289.24926511627905 L209.7764530551416 288.57026976744186 L210.6408345752608 287.33797209302327 L211.50521609538004 286.78511627906977 L212.36959761549926 286.67572093023256 L213.23397913561848 287.0408930232558 L214.0983606557377 285.79237209302323 L214.96274217585693 286.7938976744186 L215.82712369597616 285.41908837209303 L216.69150521609538 282.8897488372093 L217.5558867362146 283.74958139534886 L218.42026825633383 281.4517581395349 L219.28464977645305 281.7431813953488 L220.14903129657228 281.83605581395346 L221.0134128166915 284.51720930232557 L221.87779433681072 284.1903627906977 L222.74217585692995 283.8189395348837 L223.60655737704917 282.83281860465115 L224.47093889716842 280.9203348837209 L225.33532041728762 284.62913488372095 L226.19970193740687 285.96852093023256 L227.06408345752607 284.99936744186044 L227.92846497764532 285.48353488372095 L228.79284649776454 286.3153860465116 L229.65722801788377 286.49346976744187 L230.521609538003 286.98879999999997 L231.38599105812222 288.571311627907 L232.25037257824144 285.70478139534885 L233.11475409836066 281.2418976744186 L233.9791356184799 280.3410604651163 L234.8435171385991 279.69510697674417 L235.70789865871834 279.8283162790698 L236.57228017883756 276.9026976744186 L237.43666169895678 275.387088372093 L238.301043219076 275.8692465116279 L239.16542473919523 273.9836279069767 L240.02980625931446 272.708911627907 L240.89418777943368 271.6135441860465 L241.7585692995529 270.0272372093023 L242.62295081967213 270.36807441860464 L243.48733233979135 270.6400744186046 L244.35171385991057 266.37157209302325 L245.21609538002983 264.1220465116279 L246.08047690014902 265.35293023255815 L246.94485842026828 258.37462325581396 L247.80923994038747 258.0183813953488 L248.67362146050672 266.02686511627905 L249.53800298062592 262.39307906976745 L250.40238450074517 265.59255813953484 L251.26676602086437 261.23386046511627 L252.13114754098362 260.83973953488373 L252.99552906110281 256.2568930232558 L253.85991058122207 254.94772093023255 L254.72429210134126 254.10158139534883 L255.58867362146052 250.75490232558138 L256.45305514157974 248.30199069767443 L257.31743666169893 246.305488372093 L258.18181818181813 247.52528372093025 L259.04619970193744 245.05332093023256 L259.91058122205663 243.82846511627906 L260.77496274217583 248.96915348837211 L261.639344262295 245.36543255813953 L262.50372578241434 245.4875534883721 L263.36810730253353 243.72859534883722 L264.2324888226527 244.89652093023255 L265.096870342772 242.41250232558139 L265.96125186289123 243.07497674418607 L266.8256333830104 238.4868465116279 L267.6900149031296 221.9739534883721 L268.55439642324893 222.22883720930233 L269.4187779433681 216.24863255813952 L270.2831594634873 208.61998139534884 L271.1475409836065 209.69518139534884 L272.0119225037258 200.1867906976744 L272.876304023845 207.14150697674418 L273.7406855439642 214.1534511627907 L274.6050670640834 203.62418604651162 L275.4694485842027 200.82753488372094 L276.3338301043219 190.98753488372094 L277.1982116244411 185.45741395348838 L278.0625931445603 179.50392558139532 L278.9269746646796 166.79196279069768 L279.7913561847988 154.68584186046513 L280.655737704918 160.0826046511628 L281.52011922503726 157.7629023255814 L282.3845007451565 146.29417674418605 L283.2488822652757 146.43066046511626 L284.1132637853949 166.38950697674417 L284.97764530551416 171.16814883720932 L285.8420268256334 179.52372093023257 L286.7064083457526 163.4855441860465 L287.5707898658718 152.14653023255812 L288.43517138599105 144.5748093023256 L289.2995529061103 135.27784186046512 L290.1639344262295 135.96874418604648 L291.0283159463487 133.344 L291.89269746646795 130.13998139534885 L292.7570789865872 136.34641860465115 L293.6214605067064 132.19594418604655 L294.4858420268256 131.7578418604651 L295.3502235469449 119.8779534883721 L296.2146050670641 115.56093023255815 L297.0789865871833 104.97637209302326 L297.9433681073025 101.96762790697676 L298.8077496274218 95.61912558139537 L299.672131147541 89.10995348837213 L300.5365126676602 84.99162790697676 L301.40089418777944 94.80044651162788 L302.2652757078987 79.87817674418602 L303.1296572280179 83.76781395348837 L303.9940387481371 74.79620465116278 L304.85842026825634 75.44602790697672 L305.7228017883756 62.65086511627908 L306.5871833084948 50.39352558139535 L307.451564828614 63.245023255813976 L308.31594634873323 82.57123720930235 L309.1803278688525 116.88967441860467 L310.0447093889717 119.83404651162789 L310.9090909090909 93.44520930232557 L311.77347242921013 102.30519069767439 L312.6378539493294 109.03694883720931 L313.5022354694486 146.67259534883723 L314.3666169895678 183.84372093023256 L315.230998509687 152.50902325581396 L316.0953800298063 172.89577674418604 L316.9597615499255 162.52122790697678 L317.82414307004467 166.6557023255814 L318.6885245901639 143.46626976744187 L319.5529061102832 144.33830697674415 L320.41728763040237 145.68372093023257 L321.2816691505216 148.0772465116279 L322.1460506706409 166.67192558139536 L323.01043219076007 160.49674418604653 L323.87481371087927 173.77957209302326 L324.7391952309985 162.01719069767444 L325.60357675111777 152.299311627907 L326.46795827123697 171.1639069767442 L327.33233979135616 168.9579906976744 L328.1967213114754 176.10753488372094 L329.06110283159467 181.1995534883721 L329.92548435171386 196.03013953488372 L330.78986587183306 210.5807627906977 L331.6542473919523 203.4586046511628 L332.51862891207156 221.2894511627907 L333.38301043219076 221.59791627906975 L334.24739195230995 205.59166511627907 L335.1117734724292 210.51847441860463 L335.97615499254846 215.21934883720928 L336.84053651266765 208.4007441860465 L337.70491803278685 214.04688372093023 L338.5692995529061 213.31140465116277 L339.43368107302535 213.83553488372092 L340.29806259314455 201.64502325581395 L341.1624441132638 184.32238139534883 L342.026825633383 187.05227906976745 L342.89120715350225 194.21395348837208 L343.75558867362145 188.33384186046513 L344.6199701937407 183.52297674418605 L345.4843517138599 190.376111627907 L346.34873323397915 193.3732465116279 L347.21311475409834 217.90481860465115 L348.0774962742176 210.38333023255814 L348.94187779433685 189.45771162790697 L349.80625931445604 191.18362790697674 L350.67064083457524 197.77175813953488 L351.5350223546945 193.2074418604651 L352.39940387481374 183.91746976744184 L353.26378539493294 186.3707534883721 L354.12816691505213 187.81849302325583 L354.9925484351714 186.4853581395349 L355.85692995529064 194.40885581395347 L356.72131147540983 191.24018604651164 L357.5856929955291 198.04189767441864 L358.4500745156483 193.22373953488372 L359.31445603576753 201.21064186046513 L360.17883755588673 213.09075348837212 L361.043219076006 219.8887441860465 L361.9076005961252 214.92651162790696 L362.77198211624443 225.12156279069768 L363.6363636363636 231.96353488372094 L364.5007451564829 215.88814883720931 L365.3651266766021 205.17417674418604 L366.2295081967213 206.69350697674417 L367.0938897168405 208.61663255813954 L367.9582712369598 200.50664186046512 L368.82265275707897 192.144 L369.6870342771982 185.11449302325582 L370.5514157973174 190.2298046511628 L371.41579731743667 180.69320930232558 L372.28017883755587 175.97172093023258 L373.1445603576751 176.60509767441863 L374.0089418777943 172.3293023255814 L374.87332339791357 186.00684651162788 L375.73770491803276 189.9207441860465 L376.602086438152 179.5802790697674 L377.46646795827127 187.68848372093024 L378.33084947839046 183.56941395348838 L379.1952309985097 195.91553488372094 L380.0596125186289 203.59062325581397 L380.92399403874816 201.9013953488372 L381.78837555886736 206.02120930232556 L382.6527570789866 197.48003720930234 L383.5171385991058 190.65071627906977 L384.38152011922506 186.66076279069767 L385.24590163934425 188.69633488372094 L386.1102831594635 204.3392 L386.9746646795827 206.88215813953488 L387.83904619970195 217.51486511627908 L388.70342771982115 216.19527441860467 L389.5678092399404 226.44658604651164 L390.43219076005965 216.2532465116279 L391.29657228017885 214.74106046511628 L392.16095380029805 217.0071069767442 L393.02533532041724 223.59992558139535 L393.88971684053655 223.3802418604651 L394.75409836065575 222.1933395348837 L395.61847988077494 218.10999069767442 L396.48286140089414 235.0110511627907 L397.34724292101345 240.23151627906975 L398.21162444113264 239.05480930232557 L399.07600596125184 229.23758139534883 L399.94038748137103 236.9885023255814 L400.80476900149034 232.0986046511628 L401.66915052160954 233.07877209302325 L402.53353204172873 222.1463069767442 L403.39791356184793 215.70954418604651 L404.26229508196724 220.0993488372093 L405.12667660208643 209.54612093023255 L405.99105812220563 207.07453023255815 L406.85543964232494 210.23955348837208 L407.71982116244413 208.98262325581396 L408.58420268256333 206.47754418604652 L409.4485842026825 201.89224186046513 L410.31296572280183 199.09328372093023 L411.17734724292103 194.58827906976745 L412.0417287630402 191.46403720930232 L412.9061102831594 188.6525023255814 L413.77049180327873 206.24223255813953 L414.6348733233979 218.45618604651162 L415.4992548435171 210.4293953488372 L416.3636363636363 222.95821395348838 L417.2280178837556 214.52085581395352 L418.0923994038748 222.81108837209302 L418.956780923994 231.79832558139535 L419.8211624441132 230.98783255813953 L420.6855439642325 237.40881860465117 L421.5499254843517 236.97823255813955 L422.4143070044709 244.1224930232558 L423.2786885245901 243.25804651162792 L424.1430700447094 236.30273488372094 L425.0074515648286 241.3050046511628 L425.8718330849478 243.48613953488373 L426.73621460506706 251.7338046511628 L427.6005961251863 260.2715534883721 L428.4649776453055 267.2581953488372 L429.3293591654247 262.8551441860465 L430.19374068554396 260.3911441860465 L431.0581222056632 261.54329302325584 L431.9225037257824 265.59776744186047 L432.7868852459016 261.20684651162793 L433.6512667660209 257.95393488372093 L434.5156482861401 254.47412093023254 L435.3800298062593 252.45618604651162 L436.2444113263785 260.95374883720933 L437.1087928464978 266.4897488372093 L437.973174366617 268.414511627907 L438.8375558867362 270.17086511627906 L439.7019374068554 275.69875348837206 L440.5663189269747 271.41908837209303 L441.4307004470939 276.1566511627907 L442.2950819672131 277.93533023255816 L443.1594634873323 277.76342325581396 L444.0238450074516 280.6682046511628 L444.8882265275708 281.7196651162791 L445.75260804769 277.30597209302323 L446.61698956780924 272.40476279069765 L447.4813710879285 268.83192558139535 L448.3457526080477 263.0247441860465 L449.2101341281669 263.9512558139535 L450.07451564828614 261.41700465116276 L450.9388971684054 264.83296744186043 L451.8032786885246 260.5459348837209 L452.6676602086438 259.7498790697674 L453.53204172876303 257.82757209302326 L454.3964232488823 252.8157023255814 L455.2608047690015 252.47039999999998 L456.1251862891207 256.3805023255814 L456.98956780923993 251.74794418604648 L457.8539493293592 255.71512558139534 L458.7183308494784 257.5308651162791 L459.5827123695976 259.4525023255814 L460.4470938897169 259.8405953488372 L461.3114754098361 258.8893023255814 L462.1758569299553 254.50225116279069 L463.0402384500745 255.2551441860465 L463.9046199701938 252.62809302325581 L464.769001490313 253.1613023255814 L465.63338301043217 258.0733023255814 L466.4977645305514 256.0811906976744 L467.3621460506707 253.79341395348837 L468.22652757078987 251.4448372093023 L469.09090909090907 247.61972093023255 L469.9552906110283 238.98195348837208 L470.81967213114757 238.74232558139536 L471.68405365126677 229.32353488372092 L472.54843517138596 220.10098604651162 L473.4128166915052 216.0943627906977 L474.27719821162447 219.4014511627907 L475.14157973174366 213.04439069767443 L476.00596125186286 214.1861953488372 L476.8703427719821 224.89428837209303 L477.73472429210136 224.61261395348836 L478.59910581222056 224.97257674418606 L479.46348733233975 219.88271627906977 L480.327868852459 219.9808 L481.19225037257826 217.95802790697675 L482.05663189269745 218.88870697674417 L482.9210134128167 211.80777674418604 L483.7853949329359 210.6350139534884 L484.64977645305515 208.99259534883723 L485.51415797317435 211.34772093023255 L486.3785394932936 210.50857674418606 L487.24292101341285 206.9711627906977 L488.10730253353205 205.01685581395347 L488.97168405365124 211.63616744186047 L489.8360655737705 216.6951441860465 L490.70044709388975 215.08323720930235 L491.56482861400895 215.4408930232558 L492.42921013412814 223.3066418604651 L493.2935916542474 226.08163720930233 L494.15797317436665 238.84673488372096 L495.02235469448584 238.76822325581395 L495.88673621460504 246.78667906976744 L496.7511177347243 236.9303069767442 L497.61549925484354 233.29458604651163 L498.47988077496274 239.67345116279068 L499.34426229508193 240.45164651162793 L500.2086438152012 242.71352558139534 L501.07302533532044 256.2056930232558 L501.93740685543963 276.17131162790696 L502.8017883755589 276.65287441860465 L503.6661698956781 274.06839069767443 L504.53055141579733 280.5093953488372 L505.39493293591653 283.67687441860465 L506.2593144560358 279.6500093023256 L507.123695976155 274.3013209302326 L507.98807749627423 269.13488372093025 L508.8524590163934 265.89067906976743 L509.7168405365127 262.9259162790698 L510.5812220566319 261.9160558139535 L511.4456035767511 264.58991627906977 L512.3099850968704 265.3228651162791 L513.1743666169896 270.45172093023257 L514.0387481371088 261.51486511627905 L514.903129657228 264.10760930232556 L515.7675111773472 264.6434976744186 L516.6318926974665 257.4702139534884 L517.4962742175858 257.71237209302325 L518.360655737705 267.3026976744186 L519.2250372578242 270.17570232558137 L520.0894187779434 269.0247441860465 L520.9538002980626 274.33257674418604 L521.8181818181818 270.2746046511628 L522.6825633383011 271.5166511627907 L523.5469448584203 266.04993488372094 L524.4113263785396 263.8778046511628 L525.2757078986588 263.8108279069767 L526.140089418778 260.9370046511628 L527.0044709388972 267.40390697674417 L527.8688524590164 266.6996093023256 L528.7332339791355 267.8606139534884 L529.5976154992549 266.95002790697674 L530.461997019374 266.8239627906977 L531.3263785394934 273.3566511627907 L532.1907600596126 275.2536558139535 L533.0551415797318 273.1096558139535 L533.919523099851 277.2308093023256 L534.7839046199701 277.07646511627905 L535.6482861400893 274.49294883720927 L536.5126676602086 267.6410046511628 L537.3770491803278 264.9595534883721 L538.2414307004472 269.14686511627906 L539.1058122205663 276.4261953488372 L539.9701937406855 272.9728 L540.8345752608047 275.292576744186 L541.6989567809239 274.214623255814 L542.5633383010432 273.9895069767442 L543.4277198211624 273.55691162790697 L544.2921013412818 269.70411162790697 L545.156482861401 262.6405209302326 L546.0208643815201 257.1076465116279 L546.8852459016393 253.97685581395348 L547.7496274217585 247.7364837209302 L548.6140089418777 236.84941395348835 L549.478390461997 237.49179534883723 L550.3427719821162 238.2152930232558 L551.2071535022355 238.28226976744187 L552.0715350223547 240.36197209302324 L552.9359165424739 232.4219534883721 L553.8002980625931 233.37346976744186 L554.6646795827123 223.4465488372093 L555.5290611028315 218.7623441860465 L556.3934426229508 229.0081488372093 L557.25782414307 229.55482790697675 L558.1222056631893 229.65335813953487 L558.9865871833085 233.55080930232558 L559.8509687034277 231.10786976744185 L560.7153502235469 227.16576744186045 L561.5797317436661 223.7524093023256 L562.4441132637854 225.2123534883721 L563.3084947839046 219.63892093023256 L564.1728763040238 217.85108837209305 L565.0372578241431 210.06623255813955 L565.9016393442623 210.1338046511628 L566.7660208643815 208.4696558139535 L567.6304023845007 200.1083534883721 L568.4947839046199 197.06426046511626 L569.3591654247392 194.7348093023256 L570.2235469448584 186.97190697674418 L571.0879284649777 189.40852093023256 L571.9523099850969 186.80751627906974 L572.8166915052161 199.41968372093024 L573.6810730253353 210.59981395348836 L574.5454545454545 197.98623255813953 L575.4098360655737 193.04208372093024 L576.274217585693 198.35378604651163 L577.1385991058122 209.6312558139535 L578.0029806259315 220.73108837209304 L578.8673621460507 215.28431627906977 L579.7317436661699 215.97358139534884 L580.5961251862891 211.73968372093023 L581.4605067064083 224.08617674418605 L582.3248882265276 216.6938046511628 L583.1892697466468 214.32632558139534 L584.053651266766 217.5825860465116 L584.9180327868853 210.32543255813954 L585.7824143070045 203.7508465116279 L586.6467958271237 197.75352558139537 L587.5111773472429 198.29700465116278 L588.3755588673621 197.7191441860465 L589.2399403874814 199.27992558139536 L590.1043219076006 197.14053953488371 L590.9687034277198 193.76319999999998 L591.8330849478391 190.91400930232558 L592.6974664679583 191.71959069767442 L593.5618479880775 193.79542325581394 L594.4262295081967 188.51140465116282 L595.2906110283159 176.19266976744186 L596.1549925484352 170.88401860465115 L597.0193740685544 170.58649302325585 L597.8837555886737 168.1057488372093 L598.7481371087929 175.7712372093023 L599.6125186289121 180.34009302325583 L600.4769001490313 172.79724651162792 L601.3412816691505 174.77715348837208 L602.2056631892698 174.01294883720934 L603.070044709389 172.15836279069765 L603.9344262295082 169.8407441860465 L604.7988077496275 160.50202790697676 L605.6631892697467 176.8709953488372 L606.5275707898659 173.66653023255816 L607.3919523099851 191.05287441860466 L608.2563338301043 185.40658604651162 L609.1207153502236 180.85462325581398 L609.9850968703428 182.18932093023255 L610.849478390462 174.35363720930235 L611.7138599105813 186.68881860465117 L612.5782414307005 181.66757209302327 L613.4426229508197 179.83977674418605 L614.3070044709389 185.92096744186048 L615.1713859910582 178.09607441860464 L616.0357675111774 169.38016744186046 L616.9001490312966 166.64997209302325 L617.7645305514158 163.95073488372094 L618.6289120715351 167.310288372093 L619.4932935916543 182.65704186046514 L620.3576751117735 199.2222511627907" />
	</g>
</svg>
